<svg xmlns="http://www.w3.org/2000/svg" xmlns:xlink="http://www.w3.org/1999/xlink" viewBox="0 0 27 27" version="1.1" x="0px" y="0px"><g stroke="none" stroke-width="1" fill="none" fill-rule="evenodd"><g transform="translate(-2.000000, 0.000000)" stroke="#000000"><path d="M28.5,24.5 L2.5,24.5" stroke-linecap="round"/><path d="M17.1436859,23.3505846 L14.4729148,27.5052618 C14.3649145,27.6732681 14.2968321,27.674512 14.1812525,27.5093732 L11.252348,23.3245867 L11.2337474,-1.72594598 L11.2337474,-1.72594598 C11.2335472,-1.99555886 11.4590731,-2.22077117 11.7233297,-2.22077117 L16.6546876,-2.22077117 C16.920981,-2.22077117 17.1449718,-1.9940919 17.1449582,-1.72502668 L17.1436859,23.3505846 Z" transform="translate(14.189353, 12.705742) rotate(50.000000) translate(-14.189353, -12.705742) "/><path d="M21.1659988,3.15356378 L24.5927643,8.03260821" transform="translate(22.879382, 5.593086) rotate(-4.000000) translate(-22.879382, -5.593086) "/><path d="M5.15677408,17.1089962 L8.44279548,21.7186433" transform="translate(6.799785, 19.413820) rotate(-4.000000) translate(-6.799785, -19.413820) "/></g></g></svg>