<svg xmlns="http://www.w3.org/2000/svg" xmlns:xlink="http://www.w3.org/1999/xlink" version="1.1" x="0px" y="0px" viewBox="0 0 1024 1024" style="enable-background:new 0 0 1024 1024;" xml:space="preserve"><path d="M222.7,512c0-17.7,1.2-35.3,3.5-52.8c-0.4,2.7-0.7,5.3-1.1,8c4.7-34.4,13.9-68,27.3-100     c-1,2.4-2,4.8-3,7.2c7.8-18.3,16.9-35.9,27.3-52.8c5.1-8.2,10.4-16.2,16.1-24c1.3-1.8,2.6-3.5,3.9-5.3c0.8-1.1,1.6-2.1,2.4-3.1     c3.2-4.3-4.8,6.1-1.5,1.9c3-3.8,6-7.5,9.1-11.2c12.6-14.8,26.2-28.7,40.8-41.6c3.4-3,6.9-6,10.5-8.9c1.7-1.4,3.4-2.8,5.1-4.1     c1.7-1.4,6-4.5-1.9,1.5c1.4-1.1,2.8-2.1,4.2-3.2c7.7-5.8,15.6-11.3,23.8-16.5c18.6-11.9,38.1-22.1,58.4-30.8c-2.4,1-4.8,2-7.2,3     c32-13.5,65.6-22.6,100-27.3c-2.7,0.4-5.3,0.7-8,1.1c35-4.6,70.6-4.6,105.6,0c-2.7-0.4-5.3-0.7-8-1.1c34.4,4.7,68,13.9,100,27.3     c-2.4-1-4.8-2-7.2-3c18.3,7.8,35.9,16.9,52.8,27.3c8.2,5.1,16.2,10.4,24,16.1c1.8,1.3,3.5,2.6,5.3,3.9c1.1,0.8,2.1,1.6,3.1,2.4     c4.3,3.2-6.1-4.8-1.9-1.5c3.8,3,7.5,6,11.2,9.1c14.8,12.6,28.7,26.2,41.6,40.8c3,3.4,6,6.9,8.9,10.5c1.4,1.7,2.8,3.4,4.1,5.1     c1.4,1.7,4.5,6-1.5-1.9c1.1,1.4,2.1,2.8,3.2,4.2c5.8,7.7,11.3,15.6,16.5,23.8c11.9,18.6,22.1,38.1,30.8,58.4c-1-2.4-2-4.8-3-7.2     c13.5,32,22.6,65.6,27.3,100c-0.4-2.7-0.7-5.3-1.1-8c4.6,35,4.6,70.6,0,105.6c0.4-2.7,0.7-5.3,1.1-8c-4.7,34.4-13.9,68-27.3,100     c1-2.4,2-4.8,3-7.2c-7.8,18.3-16.9,35.9-27.3,52.8c-5.1,8.2-10.4,16.2-16.1,24c-1.3,1.8-2.6,3.5-3.9,5.3     c-0.8,1.1-1.6,2.1-2.4,3.1c-3.2,4.3,4.8-6.1,1.5-1.9c-3,3.8-6,7.5-9.1,11.2c-12.6,14.8-26.2,28.7-40.8,41.6     c-3.4,3-6.9,6-10.5,8.9c-1.7,1.4-3.4,2.8-5.1,4.1c-1.7,1.4-6,4.5,1.9-1.5c-1.4,1.1-2.8,2.1-4.2,3.2c-7.7,5.8-15.6,11.3-23.8,16.5     c-18.6,11.9-38.1,22.1-58.4,30.8c2.4-1,4.8-2,7.2-3c-32,13.5-65.6,22.6-100,27.3c2.7-0.4,5.3-0.7,8-1.1     c-34.8,4.6-70,4.6-104.8,0.1c2.7,0.4,5.3,0.7,8,1.1c-34.5-4.6-68.2-13.8-100.3-27.2c2.4,1,4.8,2,7.2,3     c-25.1-10.7-49.2-23.8-71.6-39.5c-2.7-1.9-5.4-3.8-8.1-5.8c-2.1-1.5-11.2-8.9-3.1-2.3c-5.1-4.2-10.4-8.3-15.4-12.7     c-10.4-9-20.4-18.6-29.8-28.7c-10.8-11.5-31.7-11.7-42.4,0c-11.3,12.3-11.5,30.2,0,42.4c58.3,62,135.9,106.3,219.3,123.7     c78.4,16.3,161.8,11.1,236.8-17.6c68.2-26.1,129.8-68.8,176.3-125.4c46.8-57,79.6-125.4,91.6-198.5c12.3-75.4,5.7-153.8-22.7-225     c-27.1-68-70.6-129.3-128.1-175c-57.8-46.1-126.5-78-200-88.8c-75.3-11.1-153.2-3.7-223.8,25.6     c-67.8,28.1-128.1,72.1-173.3,130.2c-23.3,30-42.6,62-57.4,97.1c-15.2,35.9-24.8,72.9-29.9,111.5c-2.3,17.5-3.5,35.1-3.5,52.8     c0,15.7,13.8,30.7,30,30C209,541.3,222.7,528.8,222.7,512L222.7,512z"/><path d="M329.4,492c-17.1,17.1-34.3,34.3-51.4,51.4c-27.3,27.3-54.6,54.6-81.9,81.9c-6.3,6.3-12.5,12.5-18.8,18.8     c14.1,0,28.3,0,42.4,0c-17.1-17.1-34.3-34.3-51.4-51.4c-27.3-27.3-54.6-54.6-81.9-81.9c-6.3-6.3-12.5-12.5-18.8-18.8     c-7.1,17.1-14.1,34.1-21.2,51.2c34.5,0,69,0,103.5,0c54.5,0,109,0,163.4,0c12.4,0,24.9,0,37.3,0c15.7,0,30.7-13.8,30-30     c-0.7-16.3-13.2-30-30-30c-34.5,0-69,0-103.5,0c-54.5,0-109,0-163.4,0c-12.4,0-24.9,0-37.3,0c-12,0-22.8,7.5-27.4,18.4     c-4.6,11-2.4,24.2,6.2,32.8c17.1,17.1,34.3,34.3,51.4,51.4c27.3,27.3,54.6,54.6,81.9,81.9c6.3,6.3,12.5,12.5,18.8,18.8     c11.5,11.5,30.9,11.5,42.4,0c17.1-17.1,34.3-34.3,51.4-51.4c27.3-27.3,54.6-54.6,81.9-81.9c6.3-6.3,12.5-12.5,18.8-18.8     c11.1-11.1,11.9-31.5,0-42.4C359.8,481,341.2,480.1,329.4,492z"/><path d="M797.9,682.3c-21.5-21.5-43.1-43.1-64.6-64.6c-34.3-34.3-68.6-68.6-102.9-102.9     c-7.8-7.8-15.7-15.7-23.5-23.5c2.9,7.1,5.9,14.1,8.8,21.2c0-26.9,0-53.8,0-80.8c0-42.6,0-85.1,0-127.7c0-9.9,0-19.8,0-29.7     c0-15.7-13.8-30.7-30-30c-16.3,0.7-30,13.2-30,30c0,30.1,0,60.3,0,90.4c0,43.6,0,87.2,0,130.8c0,14.1-1.6,27.4,9.4,38.8     c7.3,7.6,15,14.9,22.4,22.4c32.3,32.3,64.6,64.6,97,96.9c23.3,23.3,46.4,46.8,69.9,69.9c0.4,0.4,0.8,0.8,1.2,1.2     c11.1,11.1,31.5,11.9,42.4,0C808.9,712.8,809.8,694.2,797.9,682.3L797.9,682.3z"/></svg>