<!--
  Source: https://thenounproject.com/search/?q=stop%20sign&i=250586
-->

<svg xmlns="http://www.w3.org/2000/svg" xmlns:xlink="http://www.w3.org/1999/xlink" version="1.1" x="0px" y="0px" viewBox="0 0 100 100" enable-background="new 0 0 100 100" xml:space="preserve"><g><path d="M94.936,31.297L68.55,5L31.297,5.064L5,31.45l0.064,37.253L31.45,95l37.253-0.064L95,68.55L94.936,31.297z M67.664,92.44   L32.481,92.5L7.56,67.664L7.5,32.481L32.336,7.56L67.519,7.5L92.44,32.336l0.06,35.183L67.664,92.44z"/><path d="M89.943,33.375L66.489,10l-33.114,0.057L10,33.511l0.057,33.114L33.511,90l33.114-0.057L90,66.489L89.943,33.375z    M71.68,65.93c0,2.881-5.645,9.585-8.703,11.055c-1.838,1.749-21.464,1.617-24.227,0c-3.587-1.691-8.585-8.703-8.585-12.702   c0-3.353,0-30.814,0-32.107c0.706-3.352,6.03-3.234,6.501,0c0,2.051,0,15.172,0,16.995c0,1.411,2.085,1.235,2.085,0   c0-1.176,0-25.347,0-26.168c0.588-3.675,6.027-3.558,6.704-0.118c0,1.995,0,21.523,0,22.346c0,1.058,1.999,1,1.999,0   c0-0.97-0.118-22.346,0-23.404c0.353-3.558,6.263-3.646,6.704,0c0,0.617,0,21.85,0,23.231c0.176,0.97,1.97,0.97,2.117,0   c0-0.911,0-19.085,0-20.056c0.5-3.911,6.351-3.94,6.819,0c0,1.377,0,32.23,0,34.107c0,0.882,2.002,0.823,2.002,0.071   c0-0.887,0-9.186,0-10.421c0.529-3.352,6.174-3.587,6.586,0C71.68,51.454,71.68,64.407,71.68,65.93z"/></g><text x="0" y="115" fill="#000000" font-size="5px" font-weight="bold" font-family="'Helvetica Neue', Helvetica, Arial-Unicode, Arial, Sans-serif">Created by Michael Finney</text><text x="0" y="120" fill="#000000" font-size="5px" font-weight="bold" font-family="'Helvetica Neue', Helvetica, Arial-Unicode, Arial, Sans-serif">from the Noun Project</text></svg>